<?xml version="1.0" encoding="UTF-8" standalone="no"?>


<svg
   xmlns:dc="http://purl.org/dc/elements/1.1/"
   xmlns:cc="http://creativecommons.org/ns#"
   xmlns:rdf="http://www.w3.org/1999/02/22-rdf-syntax-ns#"
   xmlns:svg="http://www.w3.org/2000/svg"
   xmlns="http://www.w3.org/2000/svg"
   xmlns:sodipodi="http://sodipodi.sourceforge.net/DTD/sodipodi-0.dtd"
   xmlns:inkscape="http://www.inkscape.org/namespaces/inkscape"
   version="1.1"
   id="Layer_1"
   x="0px"
   y="0px"
   width="203.06305"
   height="409.90411"
   viewBox="0 0 203.06305 409.90411"
   enable-background="new 0 0 288.479 483.303"
   xml:space="preserve"
   inkscape:version="0.48.2 r9819"
   sodipodi:docname="ULisboa_logo.svg"><metadata
   id="metadata21"><rdf:RDF><cc:Work
       rdf:about=""><dc:format>image/svg+xml</dc:format><dc:type
         rdf:resource="http://purl.org/dc/dcmitype/StillImage" /></cc:Work></rdf:RDF></metadata><defs
   id="defs19" /><sodipodi:namedview
   pagecolor="#ffffff"
   bordercolor="#666666"
   borderopacity="1"
   objecttolerance="10"
   gridtolerance="10"
   guidetolerance="10"
   inkscape:pageopacity="0"
   inkscape:pageshadow="2"
   inkscape:window-width="1280"
   inkscape:window-height="660"
   id="namedview17"
   showgrid="false"
   fit-margin-top="0"
   fit-margin-left="0"
   fit-margin-right="0"
   fit-margin-bottom="0"
   inkscape:zoom="0.85839035"
   inkscape:cx="101.73792"
   inkscape:cy="245.57836"
   inkscape:window-x="-8"
   inkscape:window-y="-8"
   inkscape:window-maximized="1"
   inkscape:current-layer="Layer_1" />
<path
   d="m 101.35242,218.46437 c 35.712,0 64.661,-26.889 64.661,-66.696 V 9.4973712 h -30.533 V 167.03637 c 0,27.281 -15.279,49.395 -34.128,49.395 -18.847999,0 -34.129999,-22.114 -34.129999,-49.395 V 9.4973712 h -30.533 V 151.76837 c 0,39.807 28.952,66.696 64.662999,66.696 z m -60.811999,30.972 v 48.895 h 13.554 v -4.4 h -8.664 v -44.494 h -4.89 z m 1.448,113.666 c 0,1.131 -0.82,1.865 -2.063,1.865 -1.216,0 -2.035,-0.734 -2.035,-1.865 v -16.309 h -2.007 v 16.309 c 0,2.262 1.611,3.643 4.042,3.643 2.431,0 4.069,-1.381 4.069,-3.643 v -16.309 h -2.006 v 16.309 z m 15.15,3.475 v -19.783 h -1.837 v 9.156 c 0,1.979 0.027,3.533 0.113,5.457 l -4.41,-14.613 h -2.204 v 19.783 h 1.864 v -9.158 c 0,-2.035 -0.027,-3.561 -0.112,-5.512 l 4.438,14.67 h 2.148 z m 65.974999,-109.875 v 34.365 c 0,4.75 2.865,7.613 8.104,7.613 5.24,0 8.104,-2.863 8.104,-7.613 v -34.365 c 0,-4.75 -2.864,-7.615 -8.104,-7.615 -5.239,0 -8.104,2.865 -8.104,7.615 z m 11.319,0 v 34.365 c 0,1.746 -1.188,3.004 -3.215,3.004 -2.025,0 -3.214,-1.258 -3.214,-3.004 v -34.365 c 0,-1.746 1.188,-3.004 3.214,-3.004 2.026,0 3.215,1.258 3.215,3.004 z m -74.580999,118.358 h -4.183 v 19.781 h 4.183 c 2.431,0 3.957,-1.326 3.957,-3.586 v -12.609 c 0,-2.258 -1.527,-3.586 -3.957,-3.586 z m 1.921,16.195 c 0,1.131 -0.735,1.865 -1.922,1.865 h -2.148 v -16.338 h 2.148 c 1.187,0 1.922,0.764 1.922,1.863 v 12.61 z m 4.126,-92.924 v -48.895 h -4.891 v 48.895 h 4.891 z m 48.831999,-29.686 v -11.873 c 0,-4.75 -2.655,-7.336 -7.895,-7.336 h -8.033999 v 48.895 h 8.383999 c 5.24,0 7.895,-2.654 7.895,-7.334 v -12.084 c 0,-2.584 -1.328,-4.33 -3.913,-5.168 2.376,-0.908 3.563,-2.656 3.563,-5.1 z m -11.038,-14.876 h 3.144 c 2.026,0 3.004,1.256 3.004,3.004 v 11.873 c 0,1.746 -0.978,2.934 -3.004,2.934 h -3.144 v -17.811 z m 6.497,37.228 c 0,1.746 -0.979,2.934 -3.004,2.934 h -3.493 v -17.951 h 3.493 c 2.025,0 3.004,1.188 3.004,2.934 v 12.083 z m 35.628,7.334 h 4.681 l 1.607,-13.271 h 5.728 l 1.606,13.271 h 4.891 l -6.775,-49.244 h -4.891 l -6.847,49.244 z m 11.527,-17.672 h -4.75 l 2.375,-19.836 2.375,19.836 z m -66.859999,-13.76 v -10.197 c 0,-4.75 -2.859,-7.615 -8.095,-7.615 -5.239,0 -8.104,2.865 -8.104,7.615 v 6.844 c 0,11.805 11.317,12.783 11.317,21.443 v 6.078 c 0,1.746 -1.188,3.004 -3.213,3.004 -2.026,0 -3.213,-1.258 -3.213,-3.004 v -10.199 h -4.892 v 10.199 c 0,4.75 2.865,7.613 8.104,7.613 5.235,0 8.095,-2.863 8.095,-7.613 v -6.078 c 0,-11.525 -11.308,-13.131 -11.308,-21.443 v -6.844 c 0,-1.746 1.187,-3.004 3.213,-3.004 2.025,0 3.213,1.258 3.213,3.004 v 10.197 h 4.883 z m -28.513,99.678 h 2.035 v -19.783 h -2.035 v 19.783 z m 54.858999,-19.783 v 19.783 h 2.035 v -19.783 h -2.035 z m 15.009,16.195 v -12.609 c 0,-2.258 -1.526,-3.586 -3.957,-3.586 h -4.183 v 19.783 h 4.183 c 2.43,0 3.957,-1.326 3.957,-3.588 z m -6.105,-14.47 h 2.147 c 1.187,0 1.922,0.764 1.922,1.861 v 12.609 c 0,1.131 -0.735,1.867 -1.922,1.867 h -2.147 v -16.337 z m 16.987,18.058 h 2.063 l -3.703,-19.924 h -2.034 l -3.731,19.924 h 2.008 l 0.904,-5.396 h 3.589 l 0.904,5.396 z m -4.212,-7.121 1.498,-8.99 1.526,8.99 h -3.024 z m 4.663,15.463 -3.73,19.922 h 2.007 l 0.905,-5.396 h 3.589 l 0.905,5.396 h 2.063 l -3.703,-19.922 h -2.036 z m -0.537,12.801 1.498,-8.99 1.527,8.99 h -3.025 z m -10.74,-12.83 c -2.431,0 -4.07,1.385 -4.07,3.643 v 12.834 c 0,2.264 1.64,3.645 4.07,3.645 2.43,0 4.042,-1.381 4.042,-3.645 v -12.835 c 0,-2.258 -1.611,-3.642 -4.042,-3.642 z m 2.035,16.476 c 0,1.104 -0.819,1.867 -2.034,1.867 -1.244,0 -2.035,-0.764 -2.035,-1.867 v -12.834 c 0,-1.1 0.791,-1.861 2.035,-1.861 1.215,0 2.034,0.762 2.034,1.861 v 12.834 z M 6.3934207,322.15737 v 1.707 H 197.08242 v -1.707 H 6.3934207 z m 115.1289993,62.623 c 1.103,-0.424 1.78,-1.301 1.78,-2.629 v -3.676 c 0,-2.258 -1.498,-3.416 -3.844,-3.416 h -4.041 v 19.781 h 4.295 c 2.432,0 3.901,-1.211 3.901,-3.475 v -3.787 c 10e-4,-1.44 -0.79,-2.374 -2.091,-2.798 z m -4.07,-7.998 h 1.979 c 1.13,0 1.837,0.65 1.837,1.75 v 3.732 c 0,1.102 -0.707,1.752 -1.837,1.752 h -1.979 v -7.234 z m 4.155,14.528 c 0,1.16 -0.734,1.811 -1.895,1.811 h -2.261 v -7.379 h 2.261 c 1.16,0 1.895,0.678 1.895,1.781 v 3.787 z m 39.682,-24.733 h 7.039 v -1.721 h -5.004 v -7.379 h 4.155 v -1.727 h -4.155 v -7.232 h 5.004 v -1.725 h -7.039 v 19.784 z m -8.592,-19.783 h -4.183 v 19.783 h 4.183 c 2.432,0 3.957,-1.326 3.957,-3.588 v -12.609 c 0,-2.258 -1.525,-3.586 -3.957,-3.586 z m 1.922,16.195 c 0,1.131 -0.734,1.867 -1.922,1.867 h -2.147 v -16.338 h 2.147 c 1.188,0 1.922,0.764 1.922,1.861 v 12.61 z m -66.644999,-14.47 v -1.725 h -7.038 v 19.783 h 7.038 v -1.721 h -5.003 v -7.379 h 4.155 v -1.727 h -4.155 v -7.232 h 5.003 z m -19.532,46.322 h 7.038 v -1.721 h -5.003 v -7.379 h 4.154 v -1.725 h -4.154 v -7.234 h 5.003 v -1.723 h -7.038 v 19.782 z m 19.221,-19.781 h -2.008 v 19.781 h 6.953 v -1.721 h -4.945 v -18.06 z m -15.15,-12.438 -2.685,-15.828 h -2.063 l 3.702,19.924 h 2.007 l 3.73,-19.924 h -1.978 l -2.713,15.828 z m 33.861999,-10.291 v -2.205 c 0,-0.984 0.734,-1.721 1.978,-1.721 1.214,0 2.004,0.764 2.004,1.863 v 3.59 h 1.978 v -3.59 c 0,-2.26 -1.553,-3.645 -3.981,-3.645 -2.43,0 -3.985,1.301 -3.985,3.502 v 2.205 c 0,5.146 6.018,5.146 6.018,8.877 v 2.008 c 0,1.045 -0.818,1.752 -2.032,1.752 -1.243,0 -2.091,-0.734 -2.091,-1.865 v -3.59 h -1.979 v 3.59 c 0,2.262 1.61,3.643 4.041,3.643 2.428,0 4.096,-1.297 4.096,-3.586 v -2.008 c -0.002,-5.088 -6.047,-5.144 -6.047,-8.82 z m -1.412,28.266 v -2.205 c 0,-0.986 0.733,-1.721 1.978,-1.721 1.213,0 2.003,0.762 2.003,1.861 v 3.59 h 1.979 v -3.59 c 0,-2.258 -1.555,-3.643 -3.981,-3.643 -2.431,0 -3.984,1.301 -3.984,3.502 v 2.205 c 0,5.145 6.017,5.145 6.017,8.877 v 2.006 c 0,1.047 -0.819,1.754 -2.032,1.754 -1.244,0 -2.093,-0.734 -2.093,-1.867 v -3.59 h -1.978 v 3.59 c 0,2.264 1.611,3.645 4.042,3.645 2.428,0 4.096,-1.297 4.096,-3.588 v -2.006 c -0.002,-5.09 -6.047,-5.147 -6.047,-8.82 z m -8.537999,14.244 h 2.035 v -19.781 h -2.035 v 19.781 z m 1.667,-38.014 c 1.3,-0.453 2.006999,-1.555 2.006999,-3.223 v -3.336 c 0,-2.174 -1.328999,-3.475 -3.758999,-3.475 h -4.296 v 19.783 h 2.035 v -8.959 h 1.639 c 1.188,0 1.949,0.48 2.12,2.035 l 0.536,6.924 h 2.034999 l -0.648999,-6.98 c -0.17,-1.554 -0.763,-2.372 -1.668,-2.769 z m -1.837,-0.933 h -2.176 v -7.375 h 2.176 c 1.244,0 1.837,0.793 1.837,1.805 v 3.789 c 0,1.046 -0.593,1.781 -1.837,1.781 z"
   id="path3"
   inkscape:connector-curvature="0" />
<g
   id="g5"
   transform="translate(-42.501579,-39.397629)">
</g>
<g
   id="g7"
   transform="translate(-42.501579,-39.397629)">
</g>
<g
   id="g9"
   transform="translate(-42.501579,-39.397629)">
</g>
<g
   id="g11"
   transform="translate(-42.501579,-39.397629)">
</g>
<g
   id="g13"
   transform="translate(-42.501579,-39.397629)">
</g>
<g
   id="g15"
   transform="translate(-42.501579,-39.397629)">
</g>
<rect
   style="fill:none;stroke:none"
   id="rect2998"
   width="203.06305"
   height="409.90411"
   x="0"
   y="-1.2444356e-006" /></svg>